HIERARCHY
ROOT Hips
{
  OFFSET -331.093 83.8371 -317.828
  CHANNELS 6 Xposition Yposition Zposition Zrotation Xrotation Yrotation
  JOINT LeftUpLeg
  {
    OFFSET 8.64259 1.95398 -2.38835
    CHANNELS 3 Zrotation Xrotation Yrotation
    JOINT LeftLeg
    {
      OFFSET 43.7702 0 0
      CHANNELS 3 Zrotation Xrotation Yrotation
      JOINT LeftFoot
      {
        OFFSET 40.6238 0 0
        CHANNELS 3 Zrotation Xrotation Yrotation
        JOINT LeftToeBase
        {
          OFFSET 12.7242 0 0
          CHANNELS 3 Zrotation Xrotation Yrotation
          End Site
          {
            OFFSET 0 0 0
          }
        }
      }
    }
  }
  JOINT RightUpLeg
  {
    OFFSET -8.2249 1.95398 -2.59336
    CHANNELS 3 Zrotation Xrotation Yrotation
    JOINT RightLeg
    {
      OFFSET 43.5653 0 0
      CHANNELS 3 Zrotation Xrotation Yrotation
      JOINT RightFoot
      {
        OFFSET 40.6238 0 0
        CHANNELS 3 Zrotation Xrotation Yrotation
        JOINT RightToeBase
        {
          OFFSET 12.7242 0 0
          CHANNELS 3 Zrotation Xrotation Yrotation
          End Site
          {
            OFFSET 0 0 0
          }
        }
      }
    }
  }
  JOINT Spine
  {
    OFFSET 0.165834 0.87714 6.61349
    CHANNELS 3 Zrotation Xrotation Yrotation
    JOINT Spine1
    {
      OFFSET 7.38963 1.71661e-005 0
      CHANNELS 3 Zrotation Xrotation Yrotation
      JOINT Spine2
      {
        OFFSET 11.9445 1.14441e-005 0
        CHANNELS 3 Zrotation Xrotation Yrotation
        JOINT Spine3
        {
          OFFSET 14.7254 4.19617e-005 0
          CHANNELS 3 Zrotation Xrotation Yrotation
          JOINT Spine4
          {
            OFFSET 10.9679 0 0
            CHANNELS 3 Zrotation Xrotation Yrotation
            JOINT RightShoulder
            {
              OFFSET 2.46616 -1.6653 3.69651
              CHANNELS 3 Zrotation Xrotation Yrotation
              JOINT RightArm
              {
                OFFSET 13.0012 0 0
                CHANNELS 3 Zrotation Xrotation Yrotation
                JOINT RightForeArm
                {
                  OFFSET 28.7848 1.62311e-005 0
                  CHANNELS 3 Zrotation Xrotation Yrotation
                  JOINT RightHand
                  {
                    OFFSET 26.5688 1.62095e-005 0
                    CHANNELS 3 Zrotation Xrotation Yrotation
                    End Site
                    {
                      OFFSET 0 0 0
                    }
                  }
                }
              }
            }
            JOINT LeftShoulder
            {
              OFFSET 2.38034 -1.29275 -3.7523
              CHANNELS 3 Zrotation Xrotation Yrotation
              JOINT LeftArm
              {
                OFFSET 16.3182 6.07031e-005 0
                CHANNELS 3 Zrotation Xrotation Yrotation
                JOINT LeftForeArm
                {
                  OFFSET 27.0901 0 0
                  CHANNELS 3 Zrotation Xrotation Yrotation
                  JOINT LeftHand
                  {
                    OFFSET 24.5451 1.51738e-005 0
                    CHANNELS 3 Zrotation Xrotation Yrotation
                    End Site
                    {
                      OFFSET 0 0 0
                    }
                  }
                }
              }
            }
            JOINT Neck
            {
              OFFSET 5.0226 -0.0266342 0
              CHANNELS 3 Zrotation Xrotation Yrotation
              JOINT Head
              {
                OFFSET 6.69364 2.86102e-005 0
                CHANNELS 3 Zrotation Xrotation Yrotation
                End Site
                {
                  OFFSET 0 0 0
                }
              }
            }
          }
        }
      }
    }
  }
}
MOTION
Frames:	7
Frame Time:	0.0416667
-305.842 96.0997 -311.822 88.9928 -45.7953 88.9901 -175.986 3.84782 88.1066 -15.2134 19.6216 -1.44419 61.2933 10.7839 20.9115 37.5731 8.72936 5.95892 176.938 18.4562 92.6757 -41.4421 -2.74984 -4.17475 57.0753 2.2528 1.29377 66.4196 -6.66861 -12.407 -0.0946565 7.38557 -89.9585 12.1027 -0.168594 0.101226 0.431762 -0.163954 0.108534 -22.1035 -0.191233 0.045873 -2.09083 -0.191205 0.0458789 92.4494 -40.7334 -98.6205 36.0858 -12.2952 11.0362 -11.4543 -23.2246 -62.7508 -13.6217 -3.65114 29.2475 -94.8838 -47.092 71.104 -20.3714 9.01617 0.780144 6.01086 9.45542 -39.1645 11.5454 0.532369 0.730059 -1.70825 -12.34 1.45257 1.22789 -12.523 -5.39963 
-305.529 96.1356 -312.707 90.0835 -42.6442 90.1601 -175.94 4.04191 88.2841 -16.5843 21.1419 -1.32794 63.3605 11.3177 18.9668 35.2055 6.71506 5.96099 176.144 13.3583 92.0607 -36.0794 -7.46693 -3.83089 63.6546 -1.43485 -0.877884 49.7583 -4.78148 -13.8633 -0.467119 7.33936 -90.0287 12.1956 -0.941997 0.0474783 0.524975 -0.938976 0.088885 -22.0129 -0.912707 -0.237849 -2.00024 -0.912698 -0.237848 92.643 -41.1694 -98.1883 34.525 -10.1978 8.98349 -22.8697 -28.3251 -67.127 1.50606 0.553131 12.7123 -95.7966 -48.3066 70.1158 -19.5863 8.76101 1.30774 4.26238 8.11394 -37.5289 9.29586 0.390075 0.319995 -2.23351 -11.5265 2.3294 0.953551 -11.8183 -5.49192 
-305.366 96.1567 -313.228 89.1654 -41.7637 88.7887 -176.118 4.80694 87.3885 -16.2406 20.7446 -1.70383 63.6655 10.8743 17.5448 33.5422 4.99958 4.91909 175.019 5.93451 91.3978 -22.3845 -6.40748 -3.9396 72.5936 -6.29276 -3.18238 32.9782 -1.3931 -8.43807 -0.472739 7.11694 -89.9259 12.6417 -0.903677 0.253289 0.971003 -0.891632 0.292808 -21.5667 -0.938009 -0.0300377 -1.55405 -0.938012 -0.0300373 92.5107 -41.2288 -98.4015 35.667 -9.76404 7.95813 -15.7244 -19.974 -61.7456 -5.4009 -0.861546 15.3225 -96.4024 -49.0634 69.4617 -19.4271 8.8932 0.869107 3.47566 9.93439 -33.3014 8.52422 0.266855 -0.617272 -2.33559 -11.2219 2.49168 -0.122541 -11.4831 -5.09019 
-305.112 96.6663 -313.738 89.199 -44.4868 89.6337 -175.341 3.57313 88.2389 -13.772 17.3632 -2.12559 64.0096 9.7506 14.2661 35.3388 5.36728 1.49359 173.391 3.33296 91.2942 -16.5251 -7.72207 -2.95279 70.3473 -4.45868 -2.3522 30.9953 -0.584629 -4.03259 -0.0691441 7.05363 -90.0152 12.7667 -0.144525 -0.0132439 1.09575 -0.144942 -0.00687409 -21.4394 -0.133878 -0.0560727 -1.42673 -0.133864 -0.0560672 92.7111 -39.8444 -98.3774 36.73 -11.4148 5.51436 -8.2298 -13.5037 -55.5099 -7.94433 -1.22251 14.4667 -96.697 -50.2611 69.4132 -20.5181 7.56225 1.52414 4.35351 12.9037 -31.577 7.89266 0.415982 1.26507 -1.59295 -10.4703 3.39599 -0.891846 -10.8317 -5.29044 
-304.876 96.7097 -314.5 88.3506 -46.8968 89.4642 -174.99 4.10286 88.162 -13.6769 14.5581 -2.47025 65.0403 9.87164 13.3083 32.9906 3.62996 1.76489 172.967 3.37001 90.7953 -14.4853 -10.8125 -2.64716 69.2297 -3.98603 -2.13605 30.5715 -0.447631 -3.10695 0.241676 7.00042 -90.0957 12.8736 0.434074 -0.2435 1.20266 0.422947 -0.26238 -21.333 0.487207 -0.101776 -1.32039 0.4872 -0.101789 93.0192 -38.7288 -98.0989 36.5449 -12.4852 3.15925 -9.13041 -13.6423 -52.268 -6.23335 -0.783453 10.7964 -96.8179 -50.759 69.397 -23.2484 7.41167 3.76378 4.38876 12.368 -32.2675 9.7587 0.442048 0.638901 0.565679 -8.80359 3.2406 -1.7105 -9.16313 -2.47714 
-304.445 96.7475 -315.37 88.4711 -47.1224 89.0406 -175.472 4.441 87.0539 -14.3737 12.4157 -2.31745 66.0655 9.49204 11.4373 31.9558 3.00362 2.41779 173.295 4.18409 90.2624 -15.5769 -11.6968 -3.33667 69.9213 -4.61214 -2.42336 29.5563 -0.678366 -5.33818 0.206782 7.05607 -90.0618 12.7621 0.381092 -0.168835 1.09115 0.373305 -0.185452 -21.4444 0.41423 -0.0464926 -1.43179 0.41424 -0.0464912 92.7956 -39.2558 -98.3686 35.098 -12.7534 2.6491 -10.1462 -11.6174 -52.8506 -4.17235 -0.457523 8.80853 -96.9303 -50.9589 69.2984 -25.4257 9.56675 5.72931 6.10765 15.9436 -33.8606 10.8264 0.860392 3.78968 2.96649 -5.45399 4.90636 -4.05965 -6.13172 -2.96421 
-303.659 96.4909 -316.162 87.0507 -45.5795 87.4425 -176.569 5.17814 85.4059 -13.7161 13.3941 -2.05283 64.9563 10.2007 13.539 33.4118 4.45977 3.48287 172.942 6.55193 89.1026 -18.5286 -11.0163 -3.26565 71.5379 -5.43522 -2.79159 29.0952 -0.819173 -6.75136 0.0955301 7.04537 -90.0502 12.7832 0.165697 -0.120167 1.11228 0.160236 -0.127349 -21.4229 0.194132 -0.0648174 -1.41028 0.194127 -0.0648215 93.0601 -38.8083 -98.0084 35.7827 -10.5862 3.14816 -13.0237 -9.66436 -53.2876 -2.03912 -0.219893 9.56898 -97.8564 -51.2748 68.069 -26.0801 11.9721 5.5272 4.35437 15.4128 -32.2047 9.40155 0.551303 1.89607 4.00838 -3.35485 5.23352 -4.05276 -4.16327 -2.46968 
